<?xml version="1.0" encoding="UTF-8" standalone="no"?>
<!DOCTYPE svg PUBLIC "-//W3C//DTD SVG 1.1//EN" "http://www.w3.org/Graphics/SVG/1.1/DTD/svg11.dtd">
<svg width="100%" height="100%" viewBox="0 0 304 69" version="1.1" xmlns="http://www.w3.org/2000/svg" xmlns:xlink="http://www.w3.org/1999/xlink" xml:space="preserve" xmlns:serif="http://www.serif.com/" style="fill-rule:evenodd;clip-rule:evenodd;stroke-linejoin:round;stroke-miterlimit:2;">
    <g transform="matrix(1,0,0,1,-1578.24,-272.126)">
        <g transform="matrix(0.304732,0,0,0.390042,1316.11,128.673)">
            <path d="M892.5,489.216C892.498,489.213 861.614,458.33 861.614,458.33C859.73,456.446 859.73,453.801 861.614,451.917L880.001,433.53C880.046,433.432 880.094,433.334 880.147,433.237C882.061,429.712 881.479,423.481 880.267,416.49C877.044,397.903 867.504,374.582 867.504,374.582C866.692,372.595 867.476,370.422 869.495,369.058C871.514,367.694 874.38,367.403 876.779,368.317C891.784,374.039 907.444,384.76 913.223,400.308L943.739,369.791C945.003,368.528 946.941,367.79 948.993,367.79C951.045,367.79 952.983,368.528 954.246,369.791L985.173,400.718C990.828,384.948 1006.63,374.089 1021.77,368.317C1024.17,367.403 1027.03,367.694 1029.05,369.058C1031.07,370.422 1031.85,372.595 1031.04,374.582C1031.04,374.582 1021.5,397.903 1018.28,416.49C1017.07,423.481 1016.49,429.712 1018.4,433.237C1018.6,433.61 1018.75,433.992 1018.83,434.376L1036.37,451.917C1038.26,453.801 1038.26,456.446 1036.37,458.33C1036.37,458.33 1005.49,489.213 1005.49,489.216C1004.22,490.481 1002.29,491.217 1000.23,491.217C1000.23,491.217 897.764,491.217 897.764,491.217C897.76,491.217 897.757,491.217 897.753,491.217C895.696,491.217 893.767,490.481 892.5,489.216ZM894.111,419.419L902.15,411.381C901.432,400.081 894.272,391.349 885.294,385.144C888.258,393.755 891.744,405.083 893.48,415.092C893.735,416.564 893.946,418.009 894.111,419.419ZM996.367,411.912L1004.38,419.923C1004.55,418.354 1004.78,416.739 1005.07,415.092C1006.8,405.083 1010.29,393.754 1013.26,385.141C1004.13,391.446 996.891,400.354 996.367,411.912ZM996.981,480.801L1022.66,455.124L948.993,381.458L875.327,455.124L901.004,480.801L996.981,480.801ZM907.873,504.589C906.954,503.67 906.459,502.548 906.46,501.382C906.461,499.776 907.402,498.268 909.022,497.278C910.198,496.56 911.634,496.174 913.126,496.174L984.86,496.174C986.352,496.174 987.788,496.56 988.964,497.278C990.584,498.268 991.525,499.776 991.526,501.382C991.526,502.548 991.032,503.67 990.113,504.589L954.246,540.456C952.983,541.719 951.045,542.458 948.993,542.458C946.941,542.458 945.003,541.719 943.739,540.456L907.873,504.589ZM971.191,506.591L926.795,506.591C935.857,515.653 948.993,528.789 948.993,528.789L971.191,506.591Z" style="fill:white;"/>
        </g>
        <g transform="matrix(1.20224,0,0,1.20224,1706.35,311.626)">
            <path d="M0,-5.351L-0.05,-5.451C-1.05,-8.401 -3.601,-10.401 -6.4,-10.401C-9.151,-10.401 -11.701,-8.401 -12.751,-5.451L-12.801,-5.351L0,-5.351ZM4.5,-1.751L-13.151,-1.751L-13.151,-1.651C-12.651,2.149 -9.801,5 -6.5,5.05C-4.451,4.95 -2.351,4.1 -0.9,2.649L2.7,4.8C1.8,5.8 0.8,6.65 -0.35,7.35C-2.1,8.4 -4.25,8.95 -6.4,9.05C-9.401,9.05 -12.151,7.8 -14.151,5.55C-15.951,3.6 -17.051,1.1 -17.251,-1.651C-17.301,-2.001 -17.301,-2.351 -17.301,-2.701C-17.301,-3.601 -17.201,-4.501 -17.001,-5.401C-16.551,-7.501 -15.551,-9.401 -14.151,-10.951C-12.151,-13.151 -9.351,-14.401 -6.4,-14.401C-3.4,-14.401 -0.65,-13.151 1.4,-10.951C2.8,-9.401 3.85,-7.501 4.25,-5.401C4.6,-3.351 4.55,-2.201 4.5,-1.751" style="fill:white;fill-rule:nonzero;"/>
        </g>
        <g transform="matrix(1.20224,0,0,1.20224,1718.2,292.991)">
            <path d="M0,16.55L0,5.349L-3.4,5.349L-3.4,1.249L0,1.249L0,-7.601L4.3,-7.601L4.3,1.249L11.351,1.249L11.351,5.349L4.3,5.349L4.3,16.45C4.3,18.3 5.9,20.05 7.7,20.05L11.55,20.05L12.65,24.151L7.6,24.151C3.4,24.151 0,20.8 0,16.55" style="fill:white;fill-rule:nonzero;"/>
        </g>
        <g transform="matrix(1.20224,0,0,1.20224,1759.61,323.407)">
            <path d="M0,-12.6C0,-16.85 -3.45,-20.35 -7.701,-20.35C-11.951,-20.35 -15.401,-16.85 -15.401,-12.6C-15.401,-8.35 -11.951,-4.85 -7.701,-4.85C-3.45,-4.85 0,-8.35 0,-12.6M4.3,-24.051L4.3,-0.049C4.3,3.151 3.05,6.201 0.75,8.451C-1.5,10.701 -4.5,11.951 -7.701,11.951C-10.101,11.951 -12.301,11.301 -14.151,10.201C-14.901,9.752 -15.651,9.151 -16.301,8.551L-13.051,5.701C-11.601,6.851 -9.551,7.651 -7.701,7.751C-3.45,7.751 0,4.201 0,-0.049L0,-3.8C-2.15,-1.999 -4.85,-0.649 -7.701,-0.649C-10.901,-0.649 -13.901,-1.85 -16.201,-4.1C-18.451,-6.4 -19.701,-9.4 -19.701,-12.6C-19.701,-15.8 -18.451,-18.8 -16.201,-21.1C-13.901,-23.35 -10.901,-24.551 -7.701,-24.551C-4.85,-24.551 -2.15,-23.201 0,-21.401L0,-24.051L4.3,-24.051Z" style="fill:white;fill-rule:nonzero;"/>
        </g>
        <g transform="matrix(1.20224,0,0,1.20224,1793.22,308.318)">
            <path d="M0,-0.049C0,-4.299 -3.45,-7.699 -7.7,-7.699C-11.951,-7.699 -15.401,-4.299 -15.401,-0.049C-15.401,4.201 -11.951,7.652 -7.7,7.652C-3.45,7.652 0,4.201 0,-0.049M4.3,-0.049C4.3,3.151 3.05,6.151 0.75,8.451C-1.5,10.701 -4.5,11.951 -7.7,11.951C-10.9,11.951 -13.9,10.701 -16.201,8.451C-18.451,6.151 -19.701,3.151 -19.701,-0.049C-19.701,-3.249 -18.451,-6.249 -16.201,-8.549C-13.9,-10.799 -10.9,-12 -7.7,-12C-4.5,-12 -1.5,-10.799 0.75,-8.549C3.05,-6.249 4.3,-3.249 4.3,-0.049" style="fill:white;fill-rule:nonzero;"/>
        </g>
        <g transform="matrix(1.20224,0,0,1.20224,1826.1,308.259)">
            <path d="M-1.179,9.701C-3.101,11.033 -5.35,11.951 -7.7,11.951C-10.9,11.951 -13.901,10.75 -16.201,8.5C-18.452,6.2 -19.702,3.2 -19.702,0C-19.702,-3.2 -18.452,-6.2 -16.201,-8.5C-13.901,-10.75 -10.9,-11.951 -7.7,-11.951C-4.851,-11.951 -2.15,-10.601 0,-8.801L0,-11.451L4.3,-11.451L4.3,11.451L2.425,11.451L-0,11.451L-1.179,9.701ZM0,0C0,-4.25 -3.45,-7.75 -7.7,-7.75C-11.951,-7.75 -15.401,-4.25 -15.401,0C-15.401,4.25 -11.951,7.75 -7.7,7.75C-3.45,7.75 0,4.25 0,0Z" style="fill:white;"/>
        </g>
        <g transform="matrix(1.20224,0,0,1.20224,1840.58,292.991)">
            <path d="M0,16.55L0,5.349L-3.4,5.349L-3.4,1.249L0,1.249L0,-7.601L4.3,-7.601L4.3,1.249L11.351,1.249L11.351,5.349L4.3,5.349L4.3,16.45C4.3,18.3 5.9,20.05 7.7,20.05L11.551,20.05L12.65,24.151L7.601,24.151C3.4,24.151 0,20.8 0,16.55" style="fill:white;fill-rule:nonzero;"/>
        </g>
        <g transform="matrix(-1.20224,0,0,1.20224,1858.62,316.976)">
            <path d="M-18.951,4.2L-1.099,4.2L0,0L-18.951,0L-18.951,4.2Z" style="fill:white;fill-rule:nonzero;"/>
        </g>
        <g transform="matrix(1.20224,0,0,1.20224,1667.18,294.313)">
            <path d="M-10.957,23.051L-20.231,0L-15.881,0L-8.782,17.645L-5.478,9.435L-9.274,0L-4.924,0L2.184,17.667L9.292,0L13.642,0L4.368,23.051L0,23.051L-3.303,14.841L-6.606,23.051L-10.957,23.051Z" style="fill:white;"/>
        </g>
    </g>
</svg>
